<svg width="337" height="59" viewBox="0 0 337 59" fill="none" xmlns="http://www.w3.org/2000/svg">
<path fill-rule="evenodd" clip-rule="evenodd" d="M16.1527 2.40817C10.9232 2.40817 6.68387 6.9904 6.68387 12.6429V16.2551C6.68387 16.6209 6.8377 16.9668 7.10195 17.1953L23.3936 31.2828V35.5204C23.3936 39.8429 20.1517 43.3469 16.1527 43.3469C12.1537 43.3469 8.91183 39.8429 8.91183 35.5204V27.1889L13.9499 31.5453C13.9333 31.6637 13.9247 31.7848 13.9247 31.9082C13.9247 33.2382 14.9222 34.3163 16.1527 34.3163C17.3832 34.3163 18.3806 33.2382 18.3806 31.9082C18.3806 30.5782 17.3832 29.5 16.1527 29.5C15.8664 29.5 15.5928 29.5584 15.3414 29.6647L8.49375 23.7434C8.15937 23.4543 7.70124 23.3979 7.31529 23.5984C6.92933 23.7989 6.68387 24.2208 6.68387 24.6837V35.5204C6.68387 41.1729 10.9232 45.7551 16.1527 45.7551C21.3822 45.7551 25.6215 41.1729 25.6215 35.5204V30.7041C25.6215 30.3383 25.4677 29.9924 25.2034 29.7639L8.91183 15.6764V12.6429C8.91183 8.32039 12.1537 4.81634 16.1527 4.81634C20.1517 4.81634 23.3936 8.32039 23.3936 12.6429V19.7939L18.5867 15.7004C18.634 15.4923 18.6591 15.2749 18.6591 15.051C18.6591 13.5548 17.537 12.3418 16.1527 12.3418C14.7684 12.3418 13.6462 13.5548 13.6462 15.051C13.6462 16.5473 14.7684 17.7602 16.1527 17.7602C16.5055 17.7602 16.8413 17.6814 17.1459 17.5392L23.8181 23.2213C24.1533 23.5068 24.6099 23.5602 24.9938 23.3588C25.3777 23.1575 25.6215 22.7368 25.6215 22.2755V12.6429C25.6215 6.9904 21.3822 2.40817 16.1527 2.40817ZM16.1527 14.148C15.6913 14.148 15.3172 14.5523 15.3172 15.051C15.3172 15.5498 15.6913 15.9541 16.1527 15.9541C16.6141 15.9541 16.9882 15.5498 16.9882 15.051C16.9882 14.5523 16.6141 14.148 16.1527 14.148ZM3.34194 34.3163C3.95717 34.3163 4.45592 34.8554 4.45592 35.5204C4.45592 42.5029 9.69274 48.1633 16.1527 48.1633C22.6126 48.1633 27.8495 42.5029 27.8495 35.5204C27.8495 34.8554 28.3482 34.3163 28.9634 34.3163C29.5787 34.3163 30.0774 34.8554 30.0774 35.5204C30.0774 43.8329 23.8431 50.5714 16.1527 50.5714C8.46227 50.5714 2.22796 43.8329 2.22796 35.5204C2.22796 34.8554 2.7267 34.3163 3.34194 34.3163ZM15.0387 53.5816V54.1837H10.5828C9.96756 54.1837 9.46882 54.7228 9.46882 55.3878C9.46882 56.0528 9.96756 56.5918 10.5828 56.5918H21.7226C22.3378 56.5918 22.8366 56.0528 22.8366 55.3878C22.8366 54.7228 22.3378 54.1837 21.7226 54.1837H17.2667V53.5816C17.2667 52.9166 16.7679 52.3776 16.1527 52.3776C15.5375 52.3776 15.0387 52.9166 15.0387 53.5816Z" fill="#0E111A"/>
<path d="M52.4977 45.8273C59.5826 45.8273 64.5286 41.7335 64.5286 36.0502C64.5286 28.8257 58.5577 27.3327 52.9432 26.1286C48.2645 25.1171 44.9672 24.6355 44.9672 20.6861C44.9672 17.5555 47.8635 15.34 51.9629 15.34C55.8842 15.34 58.5577 17.5073 59.1815 21.0714H63.9939C63.1027 14.6175 58.6468 10.7645 51.9629 10.7645C45.19 10.7645 40.4221 14.8584 40.4221 20.6861C40.4221 28.4886 47.4179 29.5963 52.0521 30.5596C56.8645 31.5229 59.7162 32.438 59.7162 36.0502C59.7162 39.0845 56.7308 41.2518 52.4977 41.2518C47.4179 41.2518 44.2542 38.9882 43.9423 35.0869H39.1299C39.6201 41.8298 44.5661 45.8273 52.4977 45.8273Z" fill="#0E111A"/>
<path d="M85.6991 23.4796C83.9613 20.5898 81.1541 18.9041 77.723 18.9041C71.2619 18.9041 66.4941 24.202 66.4941 32.438C66.4941 40.1441 70.8609 45.8273 77.723 45.8273C80.8867 45.8273 83.4266 44.3343 85.0753 41.7816V54.7857H89.6203V19.6265H86.1001L85.6991 23.4796ZM78.124 41.4445C74.0246 41.4445 71.2174 37.6878 71.2174 32.438C71.2174 27.0918 74.0246 23.2869 78.124 23.2869C82.2235 23.2869 85.0753 26.9955 85.0753 32.0527C85.0753 37.5914 82.1344 41.4445 78.124 41.4445Z" fill="#0E111A"/>
<path d="M109.228 35.1351C109.184 38.4584 107.223 41.4445 102.946 41.4445C99.871 41.4445 97.7767 39.5661 97.7767 36.4837V19.6265H93.2317V36.6763C93.2317 41.878 96.3508 45.8273 102.545 45.8273C105.976 45.8273 108.471 44.1416 109.763 41.2518L110.253 45.1531H113.818V19.6265H109.228V35.1351Z" fill="#0E111A"/>
<path d="M138.863 40.6739C137.882 40.6739 137.303 40.0478 137.303 38.94V28.8739C137.303 22.6127 133.649 18.9041 127.411 18.9041C121.752 18.9041 117.474 22.1792 117.029 27.2845H121.485C121.707 24.8282 124.114 23.0943 127.411 23.0943C130.797 23.0943 132.803 24.9727 132.803 28.2478C132.803 31.4747 116.405 27.3808 116.405 38.1212C116.405 42.6004 120.059 45.5865 125.272 45.5865C129.015 45.5865 131.644 44.3343 133.204 42.0706C133.605 44.0453 135.343 45.1531 138.061 45.1531H140.021V40.6739H138.863ZM126.03 41.5408C123.089 41.5408 121.039 40.1922 121.039 37.8804C121.039 32.3898 131.377 34.798 132.803 32.7269V35.4722C132.803 39.0363 130.486 41.5408 126.03 41.5408Z" fill="#0E111A"/>
<path d="M159.27 22.2273C157.488 20.1563 154.948 18.9041 152.051 18.9041C145.59 18.9041 140.823 24.202 140.823 32.438C140.823 40.1441 145.189 45.8273 152.051 45.8273C155.26 45.8273 157.933 44.238 159.671 41.589L160.339 45.1531H163.904V9.03061H159.27V22.2273ZM152.453 41.4445C148.353 41.4445 145.546 37.6878 145.546 32.438C145.546 27.0918 148.353 23.2869 152.453 23.2869C156.418 23.2869 159.181 26.7065 159.315 31.7155V32.3898C159.226 37.7359 156.418 41.4445 152.453 41.4445Z" fill="#0E111A"/>
<path d="M182.668 45.8273C190.911 45.8273 196.392 40.8665 197.773 32.1971H192.961C191.802 37.9286 188.059 41.1555 182.668 41.1555C176.162 41.1555 172.063 36.1947 172.063 28.1996C172.063 20.3971 176.207 15.4363 182.712 15.4363C188.149 15.4363 191.936 18.7114 192.961 24.3947H197.773C196.437 15.8216 190.867 10.7645 182.712 10.7645C173.399 10.7645 167.25 17.989 167.25 28.1996C167.25 38.5547 173.355 45.8273 182.668 45.8273Z" fill="#0E111A"/>
<path d="M222.199 40.6739C221.218 40.6739 220.639 40.0478 220.639 38.94V28.8739C220.639 22.6127 216.985 18.9041 210.747 18.9041C205.088 18.9041 200.81 22.1792 200.365 27.2845H204.821C205.043 24.8282 207.45 23.0943 210.747 23.0943C214.134 23.0943 216.139 24.9727 216.139 28.2478C216.139 31.4747 199.741 27.3808 199.741 38.1212C199.741 42.6004 203.395 45.5865 208.608 45.5865C212.351 45.5865 214.98 44.3343 216.54 42.0706C216.941 44.0453 218.679 45.1531 221.397 45.1531H223.357V40.6739H222.199ZM209.366 41.5408C206.425 41.5408 204.375 40.1922 204.375 37.8804C204.375 32.3898 214.713 34.798 216.139 32.7269V35.4722C216.139 39.0363 213.822 41.5408 209.366 41.5408Z" fill="#0E111A"/>
<path d="M234.363 45.8273C239.754 45.8273 243.542 42.7449 243.542 38.1212C243.542 32.5343 238.685 31.282 234.675 30.4151C231.333 29.6927 229.506 28.9702 229.506 26.562C229.506 24.5392 231.377 23.1906 234.006 23.1906C236.68 23.1906 238.462 24.3947 238.863 26.8029H243.364C242.695 21.842 239.264 18.9041 234.006 18.9041C228.793 18.9041 225.05 22.131 225.05 26.562C225.05 32.3416 229.818 33.5457 234.006 34.4608C237.838 35.2796 238.997 36.3873 238.997 38.1694C238.997 40.1922 237.17 41.5408 234.407 41.5408C230.976 41.5408 228.837 40.1441 228.615 37.5914H224.114C224.426 42.7449 228.214 45.8273 234.363 45.8273Z" fill="#0E111A"/>
<path d="M258.683 19.6265H252.533V13.6061H247.988V19.6265H243.8V24.202H247.988V37.2543C248.033 42.3114 250.706 45.1531 255.563 45.1531H258.282V40.6739H255.563C253.647 40.6739 252.533 39.4216 252.533 37.2543V24.202H258.683V19.6265Z" fill="#0E111A"/>
<path d="M294.516 46L282.974 18.0419H280.577L269.074 46H271.271L274.946 37.0934H288.445L292.12 46H294.516ZM281.695 20.7179L287.607 35.0564H275.784L281.695 20.7179ZM312.451 18.0419H299.471V46H301.827V34.5771H312.451C317.364 34.5771 320.959 31.2621 320.959 26.1897C320.959 21.4768 317.524 18.0419 312.451 18.0419ZM301.827 32.5002V20.1588H312.531C316.046 20.1588 318.562 22.5951 318.562 26.1897C318.562 29.8642 316.166 32.5002 312.531 32.5002H301.827ZM329.061 46V18.0419H326.704V46H329.061Z" fill="#E06C92"/>
</svg>
